<?xml version="1.0" encoding="UTF-8" standalone="no"?>
<svg
   xmlns:dc="http://purl.org/dc/elements/1.1/"
   xmlns:cc="http://creativecommons.org/ns#"
   xmlns:rdf="http://www.w3.org/1999/02/22-rdf-syntax-ns#"
   xmlns:svg="http://www.w3.org/2000/svg"
   xmlns="http://www.w3.org/2000/svg"
   xmlns:sodipodi="http://sodipodi.sourceforge.net/DTD/sodipodi-0.dtd"
   xmlns:inkscape="http://www.inkscape.org/namespaces/inkscape"
   width="579.83148"
   height="567"
   overflow="hidden"
   version="1.1"
   id="svg45"
   sodipodi:docname="group_logo.svg"
   inkscape:version="1.0.1 (3bc2e813f5, 2020-09-07)">
  <metadata
     id="metadata49">
    <rdf:RDF>
      <cc:Work
         rdf:about="">
        <dc:format>image/svg+xml</dc:format>
        <dc:type
           rdf:resource="http://purl.org/dc/dcmitype/StillImage" />
      </cc:Work>
    </rdf:RDF>
  </metadata>
  <sodipodi:namedview
     pagecolor="#ffffff"
     bordercolor="#666666"
     borderopacity="1"
     objecttolerance="10"
     gridtolerance="10"
     guidetolerance="10"
     inkscape:pageopacity="0"
     inkscape:pageshadow="2"
     inkscape:window-width="1920"
     inkscape:window-height="1017"
     id="namedview47"
     showgrid="true"
     inkscape:zoom="1.0834821"
     inkscape:cx="314.13002"
     inkscape:cy="296.47515"
     inkscape:window-x="-8"
     inkscape:window-y="-8"
     inkscape:window-maximized="1"
     inkscape:current-layer="g43">
    <inkscape:grid
       type="xygrid"
       id="grid66" />
  </sodipodi:namedview>
  <defs
     id="defs5">
    <clipPath
       id="clip0">
      <path
         d="M 0,0 H 2835 V 643 H 0 Z"
         fill-rule="evenodd"
         clip-rule="evenodd"
         id="path2" />
    </clipPath>
  </defs>
  <g
     clip-path="url(#clip0)"
     id="g43"
     transform="translate(-6,-48.441989)">
    <path
       id="path160"
       style="color:#000000;font-style:normal;font-variant:normal;font-weight:normal;font-stretch:normal;font-size:medium;line-height:normal;font-family:sans-serif;font-variant-ligatures:normal;font-variant-position:normal;font-variant-caps:normal;font-variant-numeric:normal;font-variant-alternates:normal;font-variant-east-asian:normal;font-feature-settings:normal;font-variation-settings:normal;text-indent:0;text-align:start;text-decoration:none;text-decoration-line:none;text-decoration-style:solid;text-decoration-color:#000000;letter-spacing:normal;word-spacing:normal;text-transform:none;writing-mode:lr-tb;direction:ltr;text-orientation:mixed;dominant-baseline:auto;baseline-shift:baseline;text-anchor:start;white-space:normal;shape-padding:0;shape-margin:0;inline-size:0;clip-rule:nonzero;display:inline;overflow:visible;visibility:visible;isolation:auto;mix-blend-mode:normal;color-interpolation:sRGB;color-interpolation-filters:linearRGB;solid-color:#000000;solid-opacity:1;vector-effect:none;fill:#eb7125;fill-opacity:1;fill-rule:evenodd;stroke:none;stroke-width:1.00033;stroke-linecap:butt;stroke-linejoin:miter;stroke-miterlimit:4;stroke-dasharray:none;stroke-dashoffset:0;stroke-opacity:1;color-rendering:auto;image-rendering:auto;shape-rendering:auto;text-rendering:auto;enable-background:accumulate;stop-color:#000000"
       d="M 296.33203 0 C 139.75903 7.5791225e-14 12.832031 126.92673 12.832031 283.5 C 12.832031 304.81905 15.203226 325.58238 19.664062 345.55664 L 52.693359 345.55664 C 54.826442 318.29501 76.134872 296.4198 103.14453 293.41992 L 231.55859 134.22461 C 235.40844 106.73068 259.20324 85.558594 288 85.558594 C 316.41991 85.558594 339.97657 106.17828 344.28906 133.14648 L 474.10352 294.08203 C 500.26055 297.60303 520.73077 319.01154 522.80859 345.59961 A 5.5018001 5.5018001 0 0 1 523.5 345.55664 L 571.58398 345.55664 A 5.5018001 5.5018001 0 0 1 572.96289 345.73242 C 577.44913 325.70443 579.83203 304.88138 579.83203 283.5 C 579.83203 126.92673 452.90503 0 296.33203 0 z M 344.32617 150.72266 C 342.93119 159.68444 339.41339 167.94985 334.29492 175 C 334.91919 175.46461 335.50531 175.99842 336.03125 176.61133 L 336.11133 176.54883 L 336.41602 176.94336 L 336.41797 176.94531 L 336.66602 177.26758 L 336.72266 177.3418 L 434.18555 303.72266 C 441.63341 298.5187 450.3899 295.068 459.86719 293.95898 L 344.32617 150.72266 z M 231.79883 151.45312 L 117.15234 293.58398 C 126.49603 294.83919 135.11889 298.35616 142.45898 303.57031 L 239.80664 177.3418 L 240.11133 176.94531 L 240.41797 176.54883 L 240.49805 176.60938 C 240.92962 176.10657 241.3991 175.65372 241.89844 175.25 C 236.82458 168.33405 233.28354 160.24143 231.79883 151.45312 z M 245.61133 181.82422 L 148.16016 308.18945 C 149.47969 309.40855 150.74188 310.68773 151.94141 312.02539 L 249.83594 185.08594 L 245.61133 181.82422 z M 330.91602 181.82617 L 326.69531 185.08398 L 424.61133 312.05469 L 424.91406 311.82227 C 426.04189 310.59625 427.21807 309.41723 428.44922 308.29492 L 330.91602 181.82617 z M 320.28516 188.59766 C 313.88142 192.96768 306.53872 196.08432 298.60938 197.56445 C 298.65964 197.89748 298.69567 198.23549 298.71289 198.57812 L 298.8125 198.57812 L 298.81055 199.07422 C 298.81055 199.07622 298.8125 199.07808 298.8125 199.08008 L 298.81055 199.58008 L 298.50195 349.8418 L 298.5 350.8418 L 298.39844 350.8418 C 298.38638 351.06398 298.35808 351.2818 298.33203 351.5 C 321.82998 355.76711 340.28321 374.30914 344.21289 397.72656 L 420.13281 382.32812 C 413.75253 373.17825 410 362.05951 410 350.05859 C 410 338.09538 413.72857 327.00884 420.07227 317.875 C 419.87538 317.6803 419.68119 317.48097 419.49805 317.26758 L 419.41797 317.33008 L 419.11328 316.93555 L 419.11133 316.93359 L 418.86523 316.61328 L 418.80664 316.53711 L 320.88867 189.56836 L 320.58203 189.17188 C 320.58103 189.17088 320.581 189.16897 320.58008 189.16797 L 320.27734 188.77539 L 320.35742 188.71484 C 320.33112 188.67679 320.31087 188.63595 320.28516 188.59766 z M 256.1543 188.90234 L 255.94531 189.17188 L 255.69922 189.49219 L 255.64062 189.56836 L 157.72266 316.53711 L 157.41797 316.93359 L 157.41602 316.93555 L 157.11133 317.33008 L 157.03125 317.26758 C 156.86312 317.46347 156.67575 317.633 156.49414 317.81055 C 162.80134 326.98301 166.5 338.08834 166.5 350.05859 C 166.5 362.01458 162.80909 373.10534 156.51562 382.27148 L 231.81641 397.54688 C 235.86577 373.88871 254.74612 355.24015 278.65039 351.32812 C 278.63245 351.15256 278.60852 350.97883 278.59961 350.80078 L 278.5 350.80078 L 278.50195 350.30664 C 278.50195 350.30464 278.5 350.30278 278.5 350.30078 L 278.50195 349.80078 L 278.81055 199.53906 L 278.8125 199.03711 L 278.8125 198.53711 L 278.91406 198.53711 C 278.92673 198.30371 278.95622 198.0747 278.98438 197.8457 C 270.62991 196.52548 262.88191 193.40724 256.1543 188.90234 z M 286.14453 199.55469 L 285.83398 349.81641 L 291.16797 349.82617 L 291.47656 199.56445 L 286.14453 199.55469 z M 522.625 356.49023 C 519.43001 384.66324 495.52755 406.55664 466.5 406.55664 C 454.95736 406.55664 444.22768 403.08936 435.2832 397.14844 C 433.95795 398.82575 432.08955 400.09576 429.87891 400.66602 L 429.89844 400.76562 L 429.4082 400.86523 L 428.91797 400.96484 L 347.97656 417.38477 L 347.48633 417.48438 L 346.99609 417.58398 L 346.97656 417.48438 C 345.97203 417.63407 344.97696 417.62692 344.01562 417.48633 C 339.0774 443.70591 315.88419 463.55664 288 463.55664 C 260.14686 463.55664 236.97335 443.7504 232 417.57422 C 231.32429 417.61126 230.63765 417.5856 229.94531 417.48242 L 229.92578 417.58203 L 229.43555 417.48242 L 229.38867 417.47266 L 228.94531 417.38477 L 228.94531 417.38281 L 148.00391 400.96484 L 147.51367 400.86523 L 147.02344 400.76562 L 147.04297 400.66602 C 144.82596 400.09412 142.96552 398.81211 141.64062 397.12695 C 132.48896 403.38907 121.42339 407.05859 109.5 407.05859 C 80.225852 407.05859 56.111193 384.97213 52.880859 356.56055 L 22.355469 356.56055 C 54.582971 477.72174 165.02305 567 296.33203 567 C 427.64101 567 538.08109 477.72174 570.30859 356.56055 L 523.5 356.56055 A 5.5018001 5.5018001 0 0 1 522.625 356.49023 z M 151.37109 388.7168 C 151.00202 389.11633 150.62437 389.50766 150.24414 389.89648 L 149.46094 393.77344 L 230.40234 410.19141 L 231.00391 407.21875 C 231.00376 407.16509 231 407.11229 231 407.05859 C 231 406.32746 231.02301 405.60133 231.05078 404.87695 L 151.37109 388.7168 z M 425.35352 388.75586 L 345.46094 404.96094 L 346.51953 410.19141 L 427.46094 393.77344 L 426.73438 390.1875 C 426.26343 389.72081 425.80789 389.23877 425.35352 388.75586 z "
       transform="translate(6,48.441989)" />
  </g>
</svg>
